 <svg  version="1.0" xmlns="http://www.w3.org/2000/svg"  width="900.000000pt" height="900.000000pt" viewBox="0 0 900.000000 900.000000"  preserveAspectRatio="xMidYMid meet">  <g transform="translate(0.000000,900.000000) scale(0.100000,-0.100000)" fill="#000000" stroke="none"> <path d="M5180 5798 c1 -420 2 -769 1 -775 -2 -28 -20 -11 -26 25 -17 100 -86 229 -171 318 -97 101 -222 171 -384 214 -114 30 -395 33 -511 5 -227 -54 -404 -162 -532 -322 -112 -142 -171 -272 -223 -498 -18 -74 -19 -133 -19 -755 0 -619 2 -682 18 -760 11 -47 25 -103 33 -125 8 -23 14 -46 14 -54 0 -29 95 -206 149 -278 66 -88 130 -151 211 -210 58 -42 166 -103 182 -103 6 0 24 -6 41 -14 55 -23 118 -36 242 -52 278 -34 552 34 724 180 111 95 199 234 226 360 16 73 25 -8 27 -239 l3 -250 247 -3 248 -2 5 22 c3 13 4 934 3 2048 l-3 2025 -253 3 -254 2 2 -762z m-520 -642 c156 -30 290 -111 376 -228 67 -92 94 -156 124 -297 19 -87 20 -133 20 -626 0 -618 -4 -656 -86 -820 -89 -181 -225 -284 -428 -326 -114 -24 -217 -24 -333 1 -240 50 -406 198 -479 427 -34 106 -43 256 -44 710 0 569 10 669 82 823 69 148 188 254 348 310 110 39 293 50 420 26z"/> </g> </svg> 