<svg xmlns="http://www.w3.org/2000/svg" viewBox="0 15.399999618530273 27.600000381469727 38" data-asc="1.058" width="27.600000381469727" height="38"><defs/><g fill="#000000"><g transform="translate(0, 0)"><path d="M9.65 42.55Q9.65 47.80 10.20 49.53Q10.75 51.25 12.23 51.25Q13.70 51.25 14.78 49.95Q15.85 48.65 15.85 46.10L15.85 35.20Q15.85 33.05 15 31.55Q14.15 30.05 12.50 30.05Q10.85 30.05 10.25 32.25Q9.65 34.45 9.65 39.95L9.65 42.55M16.50 52.90L15.95 49.40Q14.25 53.40 9.05 53.40Q4.75 53.40 2.38 50.30Q0 47.20 0 41.05Q0 28.60 9.90 28.60Q14.30 28.60 15.70 31.05L15.70 16.30L12.65 16.30L12.65 15.40L25.15 15.40L25.15 52.00L27.60 52.00L27.60 52.90L16.50 52.90Z"/></g></g></svg>